<svg xmlns="http://www.w3.org/2000/svg" xmlns:xlink="http://www.w3.org/1999/xlink" version="1.1" x="0px" y="0px" viewBox="0 0 100 100" enable-background="new 0 0 100 100" xml:space="preserve"><g><g><path fill="#000000" d="M80,30H65v25h4c0,4.96289,4.03711,9,9,9s9-4.03711,9-9h3V43L80,30z M78,60c-2.75684,0-5-2.24316-5-5    s2.24316-5,5-5s5,2.24316,5,5S80.75684,60,78,60z M70,43v-8h7l6,8H70z"></path><path fill="#000000" d="M28,64c4.96289,0,9-4.03711,9-9h24V26h19l4-4l-5-5H22c-4.41827,0-8,3.58179-8,8v30h5    C19,59.96289,23.03711,64,28,64z M28,60c-2.75684,0-5-2.24316-5-5s2.24316-5,5-5s5,2.24316,5,5S30.75684,60,28,60z M21,28    c0-2.20923,1.79083-4,4-4h29v12H21V28z"></path><polygon fill="#000000" points="57.9834,60 45.9834,60 52.10406,69   "></polygon><path fill="#000000" d="M64.9834,74.15601c-3.05695-1.26025-6.42377-1.43408-9.91504-0.4646    c-1.05957,0.29395-2.03809,0.61914-2.98535,0.93359c-2.87207,0.95605-5.13965,1.70703-8.0625,1.15039    c-1.55023-0.29761-3.45825-0.76904-5.03711-1.79053V67H14v4h20.9834v17.08301h34V72H90v-4H64.9834V74.15601z M64.9834,84.08301    h-26v-5.6095c1.49359,0.62219,2.99341,0.98279,4.28516,1.23059c0.94824,0.18066,1.84863,0.25879,2.71094,0.25879    c2.72754,0,5.07617-0.78027,7.36523-1.54199c0.90039-0.29883,1.83105-0.6084,2.79395-0.87598    c3.23859-0.89917,6.20667-0.52417,8.84473,1.08655V84.08301z"></path></g></g></svg>