<svg xmlns="http://www.w3.org/2000/svg" xmlns:xlink="http://www.w3.org/1999/xlink" version="1.1" x="0px" y="0px" viewBox="0 0 48 48" enable-background="new 0 0 48 48" xml:space="preserve"><g><path d="M46.5,32.354h-6.65V19.191c0-0.133-0.055-0.261-0.148-0.354L25.518,4.776c-0.094-0.093-0.221-0.146-0.352-0.146h-18.5   c-6.062,0-6.659,5.823-6.666,5.927v19.116c0,4.947,5.439,5.668,5.555,5.68h6.24c0.626-4.203,4.247-7.439,8.62-7.439   c4.374,0,7.997,3.236,8.624,7.439H39.35h7.15c0.828,0,1.5-0.672,1.5-1.5S47.328,32.354,46.5,32.354z M12.509,20.019H6.822v-9.21   h5.688V20.019z M18.816,20.019v-9.21h3.033l8.86,9.21H18.816z"></path><path d="M20.416,29.914c-3.709,0-6.727,3.018-6.727,6.727c0,3.711,3.018,6.729,6.727,6.729c3.71,0,6.729-3.018,6.729-6.729   C27.145,32.932,24.125,29.914,20.416,29.914z"></path></g></svg>