<svg xmlns="http://www.w3.org/2000/svg" xmlns:xlink="http://www.w3.org/1999/xlink" version="1.1" x="0px" y="0px" viewBox="0 0 100 100" enable-background="new 0 0 100 100" xml:space="preserve"><g><path d="M56.282,60.352c-5.182,0-9.381,4.199-9.381,9.381s4.2,9.381,9.381,9.381c5.181,0,9.381-4.199,9.381-9.381   S61.463,60.352,56.282,60.352z M56.282,74.703c-2.746,0-4.972-2.225-4.972-4.971s2.226-4.973,4.972-4.973s4.973,2.227,4.973,4.973   S59.028,74.703,56.282,74.703z"></path><path d="M91.366,23.956c-3.004-1.023-22.403-3.069-35.172-3.069c-12.771,0-33.296,2.071-36.342,2.959   c-0.309,0.09-9.353,2.555-9.353,12.265v25.906c0,1.756,0.587,3.377,1.576,4.674H0v3.043h45.764c0-5.809,4.709-10.52,10.518-10.52   S66.8,63.926,66.8,69.734h25.484c4.261,0,7.716-3.455,7.716-7.717V34.734C100,30.473,96.748,25.79,91.366,23.956z M39.728,44.417   c0,0.808-0.655,1.461-1.462,1.461H24.552c-0.807,0-1.461-0.653-1.461-1.461v-9.573c0-0.807,0.654-1.46,1.461-1.46h13.713   c0.808,0,1.462,0.654,1.462,1.46V44.417z M89.589,44.417c0,0.808-0.653,1.461-1.461,1.461H57.777c-0.807,0-1.461-0.653-1.461-1.461   v-9.573c0-0.807,0.654-1.46,1.461-1.46h30.351c0.808,0,1.461,0.654,1.461,1.46V44.417z"></path></g></svg>