<svg xmlns="http://www.w3.org/2000/svg" xmlns:xlink="http://www.w3.org/1999/xlink" version="1.1" x="0px" y="0px" viewBox="0 0 90 90" enable-background="new 0 0 90 90" xml:space="preserve"><g><g><path d="M8.08,90.097H2.421V14.683C2.411,13.913,2.434,6.72,6.47,2.631c1.76-1.783,4.056-2.726,6.641-2.726    c2.72,0,5.105,0.981,6.899,2.836c3.852,3.984,3.817,10.68,3.79,11.668v75.375h-5.659l0.001-75.513    c0.041-1.436-0.277-5.616-2.208-7.604c-0.731-0.752-1.629-1.103-2.823-1.103c-1.079,0-1.906,0.329-2.606,1.035    c-2.028,2.045-2.438,6.506-2.425,8.053V90.097z"></path></g><g><g><rect x="4.622" y="23.491" width="15.719" height="5.659"></rect></g></g><g><g><rect x="4.622" y="33.875" width="15.719" height="5.659"></rect></g></g><g><g><rect x="4.622" y="44.258" width="15.719" height="5.659"></rect></g></g><g><g><rect x="4.622" y="54.642" width="15.719" height="5.659"></rect></g></g><g><g><rect x="4.622" y="65.025" width="15.719" height="5.658"></rect></g></g><g><g><rect x="4.622" y="75.408" width="15.719" height="5.659"></rect></g></g><g><path d="M88.52,89.94c-1.083,0-7.931-0.167-15.728-4.203c-7.546-3.906-17.586-12.324-22.562-30.248    c-6.264-22.558-27.518-24.112-28.419-24.167l0.214-3.758l-4.51-1.479l1.32-4.024l3.475,0.184    c9.873,0.523,30.244,7.637,36.68,30.814c7.675,27.65,28.655,27.811,29.509,27.793l0.16,9.089    C88.641,89.939,88.593,89.94,88.52,89.94z"></path></g><g><path fill="none" stroke="#000000" stroke-width="10" stroke-miterlimit="10" d="M84.794,83.98"></path></g></g></svg>