<?xml version="1.0" encoding="iso-8859-1"?>
<!-- Generator: Adobe Illustrator 19.0.0, SVG Export Plug-In . SVG Version: 6.00 Build 0)  -->
<svg version="1.1" id="Layer_1" xmlns="http://www.w3.org/2000/svg" xmlns:xlink="http://www.w3.org/1999/xlink" x="0px" y="0px"
	 viewBox="0 0 512 512" style="enable-background:new 0 0 512 512;" xml:space="preserve">
<g>
	<g>
		<path d="M21.171,139.986v354.869c0,9.47,7.677,17.146,17.146,17.146h435.365c9.47,0,17.146-7.677,17.146-17.146V139.986
			C465.316,139.986,47.674,139.986,21.171,139.986z M256,428.632c-70.904,0-128.589-57.685-128.589-128.589
			S185.096,171.456,256,171.456s128.589,57.684,128.589,128.587S326.904,428.632,256,428.632z"/>
	</g>
</g>
<g>
	<g>
		<path d="M473.682,0H38.317c-9.47,0-17.146,7.677-17.146,17.146v88.547c26.742,0,444.165,0,469.657,0V17.146
			C490.828,7.677,483.152,0,473.682,0z M335.866,79.272c-14.141,0-25.606-11.464-25.606-25.606
			c0-14.139,11.487-25.606,25.606-25.606c14.125,0,25.606,11.473,25.606,25.606C361.473,67.807,350.008,79.272,335.866,79.272z
			 M432.146,79.272c-14.141,0-25.606-11.464-25.606-25.606c0-14.139,11.487-25.606,25.606-25.606
			c14.145,0,25.606,11.496,25.606,25.606C457.752,67.728,446.354,79.272,432.146,79.272z"/>
	</g>
</g>
<g>
	<g>
		<path d="M326.443,282.897H185.557c-9.47,0-17.146,7.677-17.146,17.146c-0.001,48.297,39.291,87.59,87.588,87.59
			c48.296,0,87.588-39.292,87.588-87.59C343.588,290.573,335.911,282.897,326.443,282.897z"/>
	</g>
</g>
<g>
</g>
<g>
</g>
<g>
</g>
<g>
</g>
<g>
</g>
<g>
</g>
<g>
</g>
<g>
</g>
<g>
</g>
<g>
</g>
<g>
</g>
<g>
</g>
<g>
</g>
<g>
</g>
<g>
</g>
</svg>
